<svg xmlns="http://www.w3.org/2000/svg" viewBox="0 0 841.9 595.3">
  <g fill="#61DAFB">
    <path d="M666.3 296.5c0 30.8-25 55.8-55.8 55.8s-55.8-25-55.8-55.8 25-55.8 55.8-55.8 55.8 25 55.8 55.8zm-55.8-101.4c-15.8 0-30.5 4.3-43.3 11.8 15.7 9.4 29.2 21.2 39.9 34.6 4.7-5.6 8.1-12 10.1-19 1.9-6.8 3.1-14 3.1-21.4 0-7.6-1.2-15-3.5-22-2.5-7.1-6-13.8-10.7-19.4-10.9 13.5-24.3 25.4-39.9 34.6 12.8 7.5 27.5 11.8 43.3 11.8 33.3 0 60.4-27.1 60.4-60.4 0-33.3-27.1-60.4-60.4-60.4-15.8 0-30.5 4.3-43.3 11.8 15.7 9.4 29.2 21.2 39.9 34.6 4.7-5.6 8.1-12 10.1-19 1.9-6.8 3.1-14 3.1-21.4 0-7.6-1.2-15-3.5-22-2.5-7.1-6-13.8-10.7-19.4-10.9 13.5-24.3 25.4-39.9 34.6 12.8 7.5 27.5 11.8 43.3 11.8 33.3 0 60.4-27.1 60.4-60.4 0-33.3-27.1-60.4-60.4-60.4-15.8 0-30.5 4.3-43.3 11.8 15.7 9.4 29.2 21.2 39.9 34.6 4.7-5.6 8.1-12 10.1-19 1.9-6.8 3.1-14 3.1-21.4 0-7.6-1.2-15-3.5-22-2.5-7.1-6-13.8-10.7-19.4-10.9 13.5-24.3 25.4-39.9 34.6 12.8 7.5 27.5 11.8 43.3 11.8 33.3 0 60.4-27.1 60.4-60.4 0-33.3-27.1-60.4-60.4-60.4z" />
  </g>
</svg>
